<svg xmlns="http://www.w3.org/2000/svg" xmlns:xlink="http://www.w3.org/1999/xlink" width="500" zoomAndPan="magnify" viewBox="0 0 375 374.999991" height="500" preserveAspectRatio="xMidYMid meet" version="1.0"><defs><clipPath id="13f4203140"><path d="M 135.964844 145.980469 L 206.984375 145.980469 L 206.984375 229.140625 L 135.964844 229.140625 Z M 135.964844 145.980469 " clip-rule="nonzero"/></clipPath><clipPath id="1dab744db5"><path d="M 110.257812 179.414062 L 139.375 179.414062 L 139.375 229.140625 L 110.257812 229.140625 Z M 110.257812 179.414062 " clip-rule="nonzero"/></clipPath><clipPath id="b78a9fd28f"><path d="M 168.015625 145.980469 L 239.035156 145.980469 L 239.035156 229.140625 L 168.015625 229.140625 Z M 168.015625 145.980469 " clip-rule="nonzero"/></clipPath><clipPath id="0cb3c5c1b5"><path d="M 235.625 179.414062 L 264.742188 179.414062 L 264.742188 229.140625 L 235.625 229.140625 Z M 235.625 179.414062 " clip-rule="nonzero"/></clipPath></defs><rect x="-37.5" width="450" fill="#ffffff" y="-37.499999" height="449.999989" fill-opacity="1"/><rect x="-37.5" width="450" fill="#ffffff" y="-37.499999" height="449.999989" fill-opacity="1"/><g clip-path="url(#13f4203140)"><path fill="#15201a" d="M 206.167969 206.3125 C 205.621094 204.699219 204.671875 203.296875 203.601562 201.890625 C 198.589844 195.3125 188.460938 192.441406 176.925781 189.457031 C 161.246094 185.398438 151.96875 182.546875 146.101562 173.753906 C 139.683594 164.132812 141.066406 150.953125 147.699219 145.980469 C 137.996094 150.050781 134.742188 161.199219 136.375 170.265625 C 139.878906 189.742188 164.765625 191.523438 176.429688 194.796875 C 186.574219 197.648438 192.1875 200.445312 194.777344 206.335938 C 195.574219 208.148438 195.96875 209.941406 195.945312 212.234375 C 195.929688 214.089844 195.566406 215.835938 194.804688 217.476562 C 194.046875 219.117188 192.929688 220.542969 191.457031 221.757812 C 189.984375 222.96875 188.132812 223.933594 185.902344 224.644531 C 183.671875 225.359375 181.105469 225.714844 178.210938 225.714844 C 175.832031 225.714844 173.46875 225.535156 171.109375 225.171875 C 168.929688 224.839844 167.3125 222.964844 167.3125 220.753906 L 167.3125 195.960938 C 164.425781 195.320312 161.289062 194.589844 158.125 193.648438 L 158.125 217.65625 C 158.125 219.84375 157.972656 221.578125 157.664062 222.863281 C 157.351562 224.144531 156.902344 225.121094 156.308594 225.785156 C 155.714844 226.453125 154.992188 226.882812 154.136719 227.070312 C 153.28125 227.261719 152.308594 227.355469 151.214844 227.355469 L 148.796875 227.355469 L 148.796875 229.140625 L 179.351562 229.140625 C 186.710938 229.140625 192.097656 228.472656 195.519531 227.140625 C 197.324219 226.429688 198.9375 225.511719 200.363281 224.394531 C 201.785156 223.277344 202.984375 222.019531 203.957031 220.617188 C 204.929688 219.214844 205.679688 217.726562 206.203125 216.15625 C 206.722656 214.589844 206.984375 212.996094 206.984375 211.378906 C 206.984375 209.621094 206.710938 207.929688 206.167969 206.3125 " fill-opacity="1" fill-rule="nonzero"/></g><path fill="#15201a" d="M 197.121094 168.867188 C 192.492188 165.824219 185.6875 164.300781 176.714844 164.300781 L 148.796875 164.300781 L 148.796875 166.085938 L 151.214844 166.085938 C 152.214844 166.085938 153.140625 166.167969 153.996094 166.335938 C 154.847656 166.5 155.585938 166.90625 156.203125 167.546875 C 156.820312 168.1875 157.292969 169.152344 157.628906 170.4375 C 157.957031 171.71875 158.125 173.503906 158.125 175.785156 L 158.125 190.234375 C 160.46875 190.105469 163.667969 189.980469 167.3125 189.988281 L 167.3125 172.222656 C 167.3125 169.980469 168.96875 168.078125 171.191406 167.792969 C 172.648438 167.605469 174.203125 167.511719 175.859375 167.511719 C 178.851562 167.511719 181.476562 167.878906 183.730469 168.617188 C 185.984375 169.355469 187.871094 170.339844 189.394531 171.578125 C 190.914062 172.8125 192.0625 174.277344 192.847656 175.964844 C 193.632812 177.652344 194.023438 179.421875 194.023438 181.277344 C 194.023438 184.945312 192.886719 187.886719 190.621094 190.105469 C 193.289062 191.042969 195.761719 192.078125 197.992188 193.285156 C 199.1875 192.433594 200.21875 191.464844 201.074219 190.371094 C 203.066406 187.828125 204.066406 184.914062 204.066406 181.632812 C 204.066406 176.167969 201.75 171.910156 197.121094 168.867188 " fill-opacity="1" fill-rule="nonzero"/><g clip-path="url(#1dab744db5)"><path fill="#15201a" d="M 128.726562 207.921875 L 128.75 207.921875 L 130.242188 204.433594 L 130.1875 204.433594 L 139.316406 183.195312 C 139.078125 182.933594 138.84375 182.671875 138.617188 182.402344 C 137.824219 181.46875 137.117188 180.488281 136.484375 179.460938 L 120.640625 216.4375 C 119.804688 218.34375 119.09375 219.949219 118.515625 221.253906 C 117.933594 222.554688 117.296875 223.613281 116.597656 224.429688 C 115.902344 225.242188 115.066406 225.882812 114.089844 226.347656 C 113.113281 226.8125 111.835938 227.164062 110.257812 227.394531 L 110.257812 229.140625 L 130.1875 229.140625 L 130.1875 227.394531 C 128.609375 227.300781 127.339844 227.128906 126.390625 226.871094 C 125.4375 226.617188 124.691406 226.3125 124.160156 225.964844 C 123.625 225.613281 123.277344 225.230469 123.113281 224.8125 C 122.953125 224.394531 122.871094 223.929688 122.871094 223.417969 C 122.871094 222.207031 123.382812 220.371094 124.402344 217.902344 L 128.726562 207.921875 " fill-opacity="1" fill-rule="nonzero"/></g><g clip-path="url(#b78a9fd28f)"><path fill="#15201a" d="M 168.832031 206.3125 C 169.378906 204.699219 170.328125 203.296875 171.398438 201.890625 C 176.410156 195.3125 186.539062 192.441406 198.074219 189.457031 C 213.753906 185.398438 223.03125 182.546875 228.898438 173.753906 C 235.316406 164.132812 233.933594 150.953125 227.300781 145.980469 C 237.003906 150.050781 240.257812 161.199219 238.625 170.265625 C 235.121094 189.742188 210.234375 191.523438 198.570312 194.796875 C 188.425781 197.648438 182.8125 200.445312 180.222656 206.335938 C 179.425781 208.148438 179.03125 209.941406 179.054688 212.234375 C 179.070312 214.089844 179.433594 215.835938 180.195312 217.476562 C 180.953125 219.117188 182.070312 220.542969 183.542969 221.757812 C 185.015625 222.96875 186.867188 223.933594 189.097656 224.644531 C 191.328125 225.359375 193.894531 225.714844 196.789062 225.714844 C 199.167969 225.714844 201.53125 225.535156 203.890625 225.171875 C 206.070312 224.839844 207.6875 222.964844 207.6875 220.753906 L 207.6875 195.960938 C 210.574219 195.320312 213.710938 194.589844 216.875 193.648438 L 216.875 217.65625 C 216.875 219.84375 217.027344 221.578125 217.335938 222.863281 C 217.648438 224.144531 218.097656 225.121094 218.691406 225.785156 C 219.285156 226.453125 220.007812 226.882812 220.863281 227.070312 C 221.71875 227.261719 222.691406 227.355469 223.785156 227.355469 L 226.203125 227.355469 L 226.203125 229.140625 L 195.648438 229.140625 C 188.289062 229.140625 182.902344 228.472656 179.480469 227.140625 C 177.675781 226.429688 176.0625 225.511719 174.636719 224.394531 C 173.214844 223.277344 172.015625 222.019531 171.042969 220.617188 C 170.070312 219.214844 169.320312 217.726562 168.796875 216.15625 C 168.277344 214.589844 168.015625 212.996094 168.015625 211.378906 C 168.015625 209.621094 168.289062 207.929688 168.832031 206.3125 " fill-opacity="1" fill-rule="nonzero"/></g><path fill="#15201a" d="M 177.878906 168.867188 C 182.507812 165.824219 189.3125 164.300781 198.285156 164.300781 L 226.203125 164.300781 L 226.203125 166.085938 L 223.785156 166.085938 C 222.785156 166.085938 221.859375 166.167969 221.003906 166.335938 C 220.152344 166.5 219.414062 166.90625 218.796875 167.546875 C 218.179688 168.1875 217.707031 169.152344 217.371094 170.4375 C 217.042969 171.71875 216.875 173.503906 216.875 175.785156 L 216.875 190.234375 C 214.53125 190.105469 211.332031 189.980469 207.6875 189.988281 L 207.6875 172.222656 C 207.6875 169.980469 206.03125 168.078125 203.808594 167.792969 C 202.351562 167.605469 200.796875 167.511719 199.140625 167.511719 C 196.148438 167.511719 193.523438 167.878906 191.269531 168.617188 C 189.015625 169.355469 187.128906 170.339844 185.605469 171.578125 C 184.085938 172.8125 182.9375 174.277344 182.152344 175.964844 C 181.367188 177.652344 180.976562 179.421875 180.976562 181.277344 C 180.976562 184.945312 182.113281 187.886719 184.378906 190.105469 C 181.710938 191.042969 179.238281 192.078125 177.007812 193.285156 C 175.8125 192.433594 174.78125 191.464844 173.925781 190.371094 C 171.933594 187.828125 170.933594 184.914062 170.933594 181.632812 C 170.933594 176.167969 173.25 171.910156 177.878906 168.867188 " fill-opacity="1" fill-rule="nonzero"/><g clip-path="url(#0cb3c5c1b5)"><path fill="#15201a" d="M 246.277344 207.921875 L 246.25 207.921875 L 244.757812 204.433594 L 244.8125 204.433594 L 235.683594 183.195312 C 235.921875 182.933594 236.160156 182.671875 236.382812 182.402344 C 237.175781 181.46875 237.882812 180.488281 238.515625 179.460938 L 254.359375 216.4375 C 255.195312 218.34375 255.90625 219.949219 256.484375 221.253906 C 257.066406 222.554688 257.703125 223.613281 258.402344 224.429688 C 259.097656 225.242188 259.933594 225.882812 260.910156 226.347656 C 261.886719 226.8125 263.164062 227.164062 264.742188 227.394531 L 264.742188 229.140625 L 244.8125 229.140625 L 244.8125 227.394531 C 246.390625 227.300781 247.660156 227.128906 248.609375 226.871094 C 249.5625 226.617188 250.308594 226.3125 250.839844 225.964844 C 251.375 225.613281 251.722656 225.230469 251.886719 224.8125 C 252.046875 224.394531 252.128906 223.929688 252.128906 223.417969 C 252.128906 222.207031 251.617188 220.371094 250.597656 217.902344 L 246.277344 207.921875 " fill-opacity="1" fill-rule="nonzero"/></g></svg>